<?xml version="1.0" encoding="UTF-8"?>
<svg width="600" height="300" xmlns="http://www.w3.org/2000/svg">
  <!-- 定义渐变和滤镜 -->
  <defs>
    <!-- 蓝色渐变 -->
    <linearGradient id="blueGradient" x1="0%" y1="0%" x2="0%" y2="100%">
      <stop offset="0%" style="stop-color:#4A90E2;stop-opacity:0.9" />
      <stop offset="100%" style="stop-color:#2E5BBA;stop-opacity:0.7" />
    </linearGradient>
    
    <!-- 背景渐变 -->
    <linearGradient id="bgGradient" x1="0%" y1="0%" x2="0%" y2="100%">
      <stop offset="0%" style="stop-color:#f0f8ff;stop-opacity:1" />
      <stop offset="100%" style="stop-color:#e6f3ff;stop-opacity:1" />
    </linearGradient>
    
    <!-- 阴影滤镜 -->
    <filter id="dropShadow" x="-20%" y="-20%" width="140%" height="140%">
      <feDropShadow dx="2" dy="2" stdDeviation="3" flood-color="#000000" flood-opacity="0.3"/>
    </filter>
    
    <!-- 发光效果 -->
    <filter id="glow" x="-50%" y="-50%" width="200%" height="200%">
      <feGaussianBlur stdDeviation="3" result="coloredBlur"/>
      <feMerge> 
        <feMergeNode in="coloredBlur"/>
        <feMergeNode in="SourceGraphic"/>
      </feMerge>
    </filter>
    
    <!-- 高斯钟形曲线路径 -->
    <path id="bellCurve" d="M 100 245 C 140 230 180 180 220 120 C 260 80 300 65 300 65 C 300 65 340 80 380 120 C 420 180 460 230 500 245"/>
  </defs>
  
  <!-- 背景 -->
  <rect x="0" y="0" width="600" height="300" fill="url(#bgGradient)"/>
  
  <!-- 网格线 -->
  <g stroke="#ddd" stroke-width="0.5" opacity="0.7">
    <line x1="50" y1="200" x2="550" y2="200"/>
    <line x1="50" y1="150" x2="550" y2="150"/>
    <line x1="50" y1="100" x2="550" y2="100"/>
    <line x1="100" y1="50" x2="100" y2="250"/>
    <line x1="200" y1="50" x2="200" y2="250"/>
    <line x1="300" y1="50" x2="300" y2="250"/>
    <line x1="400" y1="50" x2="400" y2="250"/>
    <line x1="500" y1="50" x2="500" y2="250"/>
  </g>
  
  <!-- 坐标轴 -->
  <line x1="50" y1="250" x2="550" y2="250" stroke="black" stroke-width="3" filter="url(#dropShadow)"/>
  <line x1="50" y1="250" x2="50" y2="50" stroke="black" stroke-width="3" filter="url(#dropShadow)"/>
  
  <!-- 坐标轴箭头 -->
  <polygon points="550,250 540,245 540,255" fill="black"/>
  <polygon points="50,50 45,60 55,60" fill="black"/>
  
  <!-- X轴标签 -->
  <text x="100" y="270" text-anchor="middle" font-size="12" fill="black" font-weight="bold">15</text>
  <text x="200" y="270" text-anchor="middle" font-size="12" fill="black" font-weight="bold">25</text>
  <text x="300" y="270" text-anchor="middle" font-size="12" fill="black" font-weight="bold">35</text>
  <text x="400" y="270" text-anchor="middle" font-size="12" fill="black" font-weight="bold">45</text>
  <text x="500" y="270" text-anchor="middle" font-size="12" fill="black" font-weight="bold">55</text>
  
  <!-- Y轴标签 -->
  <text x="30" y="255" text-anchor="middle" font-size="12" fill="black" font-weight="bold">0</text>
  <text x="30" y="155" text-anchor="middle" font-size="12" fill="black" font-weight="bold">50</text>
  <text x="30" y="75" text-anchor="middle" font-size="12" fill="black" font-weight="bold">100</text>
  
  <!-- 轴标题 -->
  <text x="300" y="290" text-anchor="middle" font-size="14" fill="black" font-weight="bold">Episode Length</text>
  <text x="20" y="150" text-anchor="middle" font-size="14" fill="black" font-weight="bold" transform="rotate(-90 20 150)">Frequency</text>
  
  <!-- 正态分布柱状图 (带渐变和阴影) -->
  <rect x="85" y="240" width="30" height="10" fill="url(#blueGradient)" stroke="#2E5BBA" stroke-width="1" filter="url(#dropShadow)"/>
  <rect x="125" y="220" width="30" height="30" fill="url(#blueGradient)" stroke="#2E5BBA" stroke-width="1" filter="url(#dropShadow)"/>
  <rect x="165" y="180" width="30" height="70" fill="url(#blueGradient)" stroke="#2E5BBA" stroke-width="1" filter="url(#dropShadow)"/>
  <rect x="205" y="130" width="30" height="120" fill="url(#blueGradient)" stroke="#2E5BBA" stroke-width="1" filter="url(#dropShadow)"/>
  <rect x="245" y="90" width="30" height="160" fill="url(#blueGradient)" stroke="#2E5BBA" stroke-width="1" filter="url(#dropShadow)"/>
  <rect x="285" y="60" width="30" height="190" fill="url(#blueGradient)" stroke="#2E5BBA" stroke-width="1" filter="url(#dropShadow)"/>
  <rect x="325" y="90" width="30" height="160" fill="url(#blueGradient)" stroke="#2E5BBA" stroke-width="1" filter="url(#dropShadow)"/>
  <rect x="365" y="130" width="30" height="120" fill="url(#blueGradient)" stroke="#2E5BBA" stroke-width="1" filter="url(#dropShadow)"/>
  <rect x="405" y="180" width="30" height="70" fill="url(#blueGradient)" stroke="#2E5BBA" stroke-width="1" filter="url(#dropShadow)"/>
  <rect x="445" y="220" width="30" height="30" fill="url(#blueGradient)" stroke="#2E5BBA" stroke-width="1" filter="url(#dropShadow)"/>
  <rect x="485" y="240" width="30" height="10" fill="url(#blueGradient)" stroke="#2E5BBA" stroke-width="1" filter="url(#dropShadow)"/>
  
  <!-- 完美的高斯钟形曲线 -->
  <path d="M 100 245 C 140 230 180 180 220 120 C 260 80 300 65 300 65 C 300 65 340 80 380 120 C 420 180 460 230 500 245" 
        stroke="#4A90E2" stroke-width="4" fill="none" filter="url(#glow)" opacity="0.9"/>
  
  <!-- 填充区域 (半透明钟形) -->
  <path d="M 100 250 L 100 245 C 140 230 180 180 220 120 C 260 80 300 65 300 65 C 300 65 340 80 380 120 C 420 180 460 230 500 245 L 500 250 Z" 
        fill="#4A90E2" opacity="0.2"/>
  
  <!-- 平均线 (发光虚线) -->
  <line x1="300" y1="60" x2="300" y2="250" stroke="red" stroke-width="4" stroke-dasharray="5,5" filter="url(#glow)"/>
  <text x="310" y="55" font-size="16" fill="red" font-weight="bold" filter="url(#dropShadow)">μ = 35</text>
  
  <!-- 标准差范围线 (发光) -->
  <line x1="220" y1="260" x2="380" y2="260" stroke="green" stroke-width="5" filter="url(#glow)"/>
  <text x="300" y="275" text-anchor="middle" font-size="12" fill="green" font-weight="bold" filter="url(#dropShadow)">68% Range (±1σ)</text>
  
  <!-- 左右标准差线 (发光虚线) -->
  <line x1="220" y1="90" x2="220" y2="250" stroke="green" stroke-width="3" stroke-dasharray="3,3" filter="url(#glow)"/>
  <text x="180" y="85" font-size="12" fill="green" font-weight="bold" filter="url(#dropShadow)">-1σ</text>
  <text x="180" y="100" font-size="10" fill="green">(27)</text>
  
  <line x1="380" y1="90" x2="380" y2="250" stroke="green" stroke-width="3" stroke-dasharray="3,3" filter="url(#glow)"/>
  <text x="385" y="85" font-size="12" fill="green" font-weight="bold" filter="url(#dropShadow)">+1σ</text>
  <text x="385" y="100" font-size="10" fill="green">(43)</text>
  
  <!-- 对称性指示 -->
  <circle cx="300" cy="65" r="8" fill="none" stroke="#ff6b6b" stroke-width="2" filter="url(#glow)">
    <animate attributeName="r" values="6;10;6" dur="3s" repeatCount="indefinite"/>
  </circle>
  <text x="300" y="45" text-anchor="middle" font-size="10" fill="#ff6b6b" font-weight="bold">Peak</text>
  
  <!-- 对称箭头 -->
  <path d="M 250 120 L 280 120" stroke="#ff6b6b" stroke-width="2" marker-end="url(#arrowRed)"/>
  <path d="M 350 120 L 320 120" stroke="#ff6b6b" stroke-width="2" marker-end="url(#arrowRed)"/>
  <text x="300" y="135" text-anchor="middle" font-size="10" fill="#ff6b6b" font-weight="bold">Symmetric</text>
  
  <!-- 红色箭头标记 -->
  <defs>
    <marker id="arrowRed" markerWidth="10" markerHeight="7" refX="10" refY="3.5" orient="auto">
      <polygon points="0 0, 10 3.5, 0 7" fill="#ff6b6b"/>
    </marker>
  </defs>
  
  <!-- 统计信息面板 -->
  <rect x="450" y="70" width="130" height="80" fill="white" stroke="#ddd" stroke-width="1" filter="url(#dropShadow)" opacity="0.9" rx="5"/>
  <text x="460" y="85" font-size="12" fill="black" font-weight="bold">Statistics:</text>
  <text x="460" y="100" font-size="10" fill="black">Mean = Median = 35</text>
  <text x="460" y="115" font-size="10" fill="black">Std Dev (σ) = 8</text>
  <text x="460" y="130" font-size="10" fill="black">Skewness = 0</text>
  <text x="460" y="145" font-size="10" fill="green">68% within ±1σ</text>
  
  <!-- 标题 -->
  <text x="300" y="25" text-anchor="middle" font-size="18" fill="black" font-weight="bold" filter="url(#dropShadow)">Normal Distribution</text>
  <text x="300" y="40" text-anchor="middle" font-size="12" fill="#666" font-style="italic">(Perfect Bell Curve: μ=35, σ=8)</text>
</svg> 