<?xml version="1.0" encoding="UTF-8"?>
<svg width="600" height="300" xmlns="http://www.w3.org/2000/svg">
  <!-- 定义渐变和滤镜 -->
  <defs>
    <!-- 橙色渐变 -->
    <linearGradient id="orangeGradient" x1="0%" y1="0%" x2="0%" y2="100%">
      <stop offset="0%" style="stop-color:#ff6600;stop-opacity:0.9" />
      <stop offset="100%" style="stop-color:#cc3300;stop-opacity:0.7" />
    </linearGradient>
    
    <!-- 背景渐变 -->
    <linearGradient id="bgGradient" x1="0%" y1="0%" x2="0%" y2="100%">
      <stop offset="0%" style="stop-color:#f8f9fa;stop-opacity:1" />
      <stop offset="100%" style="stop-color:#e9ecef;stop-opacity:1" />
    </linearGradient>
    
    <!-- 阴影滤镜 -->
    <filter id="dropShadow" x="-20%" y="-20%" width="140%" height="140%">
      <feDropShadow dx="2" dy="2" stdDeviation="3" flood-color="#000000" flood-opacity="0.3"/>
    </filter>
    
    <!-- 发光效果 -->
    <filter id="glow" x="-50%" y="-50%" width="200%" height="200%">
      <feGaussianBlur stdDeviation="3" result="coloredBlur"/>
      <feMerge> 
        <feMergeNode in="coloredBlur"/>
        <feMergeNode in="SourceGraphic"/>
      </feMerge>
    </filter>
  </defs>
  
  <!-- 背景 -->
  <rect x="0" y="0" width="600" height="300" fill="url(#bgGradient)"/>
  
  <!-- 网格线 -->
  <g stroke="#ddd" stroke-width="0.5" opacity="0.7">
    <line x1="50" y1="200" x2="550" y2="200"/>
    <line x1="50" y1="150" x2="550" y2="150"/>
    <line x1="50" y1="100" x2="550" y2="100"/>
    <line x1="100" y1="50" x2="100" y2="250"/>
    <line x1="200" y1="50" x2="200" y2="250"/>
    <line x1="300" y1="50" x2="300" y2="250"/>
    <line x1="400" y1="50" x2="400" y2="250"/>
    <line x1="500" y1="50" x2="500" y2="250"/>
  </g>
  
  <!-- 坐标轴 -->
  <line x1="50" y1="250" x2="550" y2="250" stroke="black" stroke-width="3" filter="url(#dropShadow)"/>
  <line x1="50" y1="250" x2="50" y2="50" stroke="black" stroke-width="3" filter="url(#dropShadow)"/>
  
  <!-- 坐标轴箭头 -->
  <polygon points="550,250 540,245 540,255" fill="black"/>
  <polygon points="50,50 45,60 55,60" fill="black"/>
  
  <!-- X轴标签 -->
  <text x="100" y="270" text-anchor="middle" font-size="12" fill="black" font-weight="bold">30</text>
  <text x="200" y="270" text-anchor="middle" font-size="12" fill="black" font-weight="bold">60</text>
  <text x="300" y="270" text-anchor="middle" font-size="12" fill="black" font-weight="bold">90</text>
  <text x="400" y="270" text-anchor="middle" font-size="12" fill="black" font-weight="bold">120</text>
  <text x="500" y="270" text-anchor="middle" font-size="12" fill="black" font-weight="bold">150</text>
  
  <!-- Y轴标签 -->
  <text x="30" y="255" text-anchor="middle" font-size="12" fill="black" font-weight="bold">0</text>
  <text x="30" y="155" text-anchor="middle" font-size="12" fill="black" font-weight="bold">50</text>
  <text x="30" y="75" text-anchor="middle" font-size="12" fill="black" font-weight="bold">100</text>
  
  <!-- 轴标题 -->
  <text x="300" y="290" text-anchor="middle" font-size="14" fill="black" font-weight="bold">Episode Length</text>
  <text x="20" y="150" text-anchor="middle" font-size="14" fill="black" font-weight="bold" transform="rotate(-90 20 150)">Frequency</text>
  
  <!-- 右偏分布柱状图 (带渐变和阴影) -->
  <rect x="85" y="230" width="30" height="20" fill="url(#orangeGradient)" stroke="#cc3300" stroke-width="1" filter="url(#dropShadow)"/>
  <rect x="125" y="180" width="30" height="70" fill="url(#orangeGradient)" stroke="#cc3300" stroke-width="1" filter="url(#dropShadow)"/>
  <rect x="165" y="120" width="30" height="130" fill="url(#orangeGradient)" stroke="#cc3300" stroke-width="1" filter="url(#dropShadow)"/>
  <rect x="205" y="60" width="30" height="190" fill="url(#orangeGradient)" stroke="#cc3300" stroke-width="1" filter="url(#dropShadow)"/>
  <rect x="245" y="80" width="30" height="170" fill="url(#orangeGradient)" stroke="#cc3300" stroke-width="1" filter="url(#dropShadow)"/>
  <rect x="285" y="120" width="30" height="130" fill="url(#orangeGradient)" stroke="#cc3300" stroke-width="1" filter="url(#dropShadow)"/>
  <rect x="325" y="160" width="30" height="90" fill="url(#orangeGradient)" stroke="#cc3300" stroke-width="1" filter="url(#dropShadow)"/>
  <rect x="365" y="190" width="30" height="60" fill="url(#orangeGradient)" stroke="#cc3300" stroke-width="1" filter="url(#dropShadow)"/>
  <rect x="405" y="210" width="30" height="40" fill="url(#orangeGradient)" stroke="#cc3300" stroke-width="1" filter="url(#dropShadow)"/>
  <rect x="445" y="225" width="30" height="25" fill="url(#orangeGradient)" stroke="#cc3300" stroke-width="1" filter="url(#dropShadow)"/>
  <rect x="485" y="235" width="30" height="15" fill="url(#orangeGradient)" stroke="#cc3300" stroke-width="1" filter="url(#dropShadow)"/>
  
  <!-- 正确的右偏钟形曲线：左侧快速上升，峰值在众数位置，右侧长尾缓慢下降 -->
  <path d="M 100 245 C 120 230 140 200 160 150 C 180 100 200 70 220 60 C 240 70 260 90 280 120 C 320 160 360 190 400 210 C 440 225 480 235 520 240" 
        stroke="#ff6600" stroke-width="4" fill="none" filter="url(#glow)" opacity="0.9"/>
  
  <!-- 填充区域 (半透明) - 右偏钟形 -->
  <path d="M 100 250 L 100 245 C 120 230 140 200 160 150 C 180 100 200 70 220 60 C 240 70 260 90 280 120 C 320 160 360 190 400 210 C 440 225 480 235 520 240 L 520 250 Z" 
        fill="#ff6600" opacity="0.2"/>
  
  <!-- 众数线 (发光虚线) -->
  <line x1="220" y1="60" x2="220" y2="250" stroke="red" stroke-width="3" stroke-dasharray="5,5" filter="url(#glow)"/>
  <text x="225" y="55" font-size="14" fill="red" font-weight="bold" filter="url(#dropShadow)">Mode=60</text>
  
  <!-- 中位数线 (发光点线) -->
  <line x1="270" y1="120" x2="270" y2="250" stroke="purple" stroke-width="3" stroke-dasharray="3,3" filter="url(#glow)"/>
  <text x="275" y="115" font-size="14" fill="purple" font-weight="bold" filter="url(#dropShadow)">Median=75</text>
  
  <!-- 均值线 (发光长虚线) -->
  <line x1="330" y1="160" x2="330" y2="250" stroke="green" stroke-width="3" stroke-dasharray="7,3" filter="url(#glow)"/>
  <text x="335" y="155" font-size="14" fill="green" font-weight="bold" filter="url(#dropShadow)">Mean=85</text>
  
  <!-- 峰值标注 (带动画效果) -->
  <circle cx="220" cy="60" r="6" fill="#ff6600" stroke="#cc3300" stroke-width="2" filter="url(#glow)">
    <animate attributeName="r" values="4;8;4" dur="2s" repeatCount="indefinite"/>
  </circle>
  <text x="230" y="45" font-size="12" fill="#ff6600" font-weight="bold" filter="url(#dropShadow)">Peak</text>
  
  <!-- 长尾标注 (带动画效果) -->
  <circle cx="440" cy="210" r="4" fill="#ff6600" stroke="#cc3300" stroke-width="2" filter="url(#glow)">
    <animate attributeName="r" values="3;6;3" dur="3s" repeatCount="indefinite"/>
  </circle>
  <text x="450" y="200" font-size="12" fill="#ff6600" font-weight="bold" filter="url(#dropShadow)">Long Tail</text>
  
  <!-- 偏度指示箭头 -->
  <path d="M 350 180 Q 420 160 480 180" stroke="#ff6600" stroke-width="2" fill="none" marker-end="url(#arrowhead)"/>
  <text x="410" y="155" font-size="10" fill="#ff6600" font-weight="bold">Skewed Right</text>
  
  <!-- 箭头标记 -->
  <defs>
    <marker id="arrowhead" markerWidth="10" markerHeight="7" refX="10" refY="3.5" orient="auto">
      <polygon points="0 0, 10 3.5, 0 7" fill="#ff6600"/>
    </marker>
  </defs>
  
  <!-- 钟形曲线特征标注 -->
  <text x="140" y="170" font-size="10" fill="#ff6600" font-weight="bold" transform="rotate(-45 140 170)">Fast Rise</text>
  <text x="420" y="220" font-size="10" fill="#ff6600" font-weight="bold" transform="rotate(15 420 220)">Slow Decline</text>
  
  <!-- 标题 -->
  <text x="300" y="25" text-anchor="middle" font-size="18" fill="black" font-weight="bold" filter="url(#dropShadow)">Right-Skewed Distribution</text>
  <text x="300" y="40" text-anchor="middle" font-size="12" fill="#666" font-style="italic">(Bell-shaped curve with right tail: Mode=60, Median=75, Mean=85)</text>
</svg> 